# Blender 5.1.0
# www.blender.org
mtllib Untitled.mtl
o BézierCircle
v -61.283703 0.000000 0.000000
v -60.724068 0.000000 -7.952878
v -59.093910 0.000000 -15.581164
v -56.466351 0.000000 -22.814911
v -52.914509 0.000000 -29.584175
v -48.511505 0.000000 -35.819008
v -43.330456 0.000000 -41.449467
v -37.444485 0.000000 -46.405602
v -30.926710 0.000000 -50.617470
v -23.850256 0.000000 -54.015125
v -16.288240 0.000000 -56.528622
v -8.313781 0.000000 -58.088009
v 0.000000 0.000000 -58.623363
v 8.313782 0.000000 -58.088024
v 16.288240 0.000000 -56.528633
v 23.850256 0.000000 -54.015133
v 30.926710 0.000000 -50.617481
v 37.444481 0.000000 -46.405609
v 43.330452 0.000000 -41.449474
v 48.511494 0.000000 -35.819012
v 52.914501 0.000000 -29.584175
v 56.466339 0.000000 -22.814911
v 59.093903 0.000000 -15.581164
v 60.724056 0.000000 -7.952878
v 61.283703 0.000000 0.000000
v 60.724068 0.000000 7.952878
v 59.093910 0.000000 15.581164
v 56.466351 0.000000 22.814911
v 52.914509 0.000000 29.584175
v 48.511505 0.000000 35.819008
v 43.330456 0.000000 41.449467
v 37.444485 0.000000 46.405602
v 30.926710 0.000000 50.617470
v 23.850256 0.000000 54.015125
v 16.288240 0.000000 56.528622
v 8.313781 0.000000 58.088009
v 0.000000 0.000000 58.623363
v -8.313782 0.000000 58.088024
v -16.288240 0.000000 56.528633
v -23.850256 0.000000 54.015133
v -30.926710 0.000000 50.617481
v -37.444481 0.000000 46.405609
v -43.330452 0.000000 41.449474
v -48.511494 0.000000 35.819012
v -52.914501 0.000000 29.584175
v -56.466339 0.000000 22.814911
v -59.093903 0.000000 15.581164
v -60.724056 0.000000 7.952878
l 1 2
l 2 3
l 3 4
l 4 5
l 5 6
l 6 7
l 7 8
l 8 9
l 9 10
l 10 11
l 11 12
l 12 13
l 13 14
l 14 15
l 15 16
l 16 17
l 17 18
l 18 19
l 19 20
l 20 21
l 21 22
l 22 23
l 23 24
l 24 25
l 25 26
l 26 27
l 27 28
l 28 29
l 29 30
l 30 31
l 31 32
l 32 33
l 33 34
l 34 35
l 35 36
l 36 37
l 37 38
l 38 39
l 39 40
l 40 41
l 41 42
l 42 43
l 43 44
l 44 45
l 45 46
l 46 47
l 47 48
l 48 1
o Plane
v 4.459773 0.000000 65.260460
v -4.459769 -0.000000 65.260460
v 3.527661 -0.000000 51.471939
v -3.527663 0.000000 51.471943
v -4.459769 -0.000000 65.260460
v -13.312704 0.000000 64.161865
v -3.527663 0.000000 51.471943
v -10.517242 -0.000000 50.605774
v -13.312704 0.000000 64.161865
v -21.949030 0.000000 61.960670
v -10.517242 -0.000000 50.605774
v -17.318630 -0.000000 48.872551
v -21.949030 0.000000 61.960670
v -30.208286 -0.000000 58.692287
v -17.318630 -0.000000 48.872551
v -23.823109 0.000000 46.298298
v -30.208286 -0.000000 58.692287
v -37.945530 0.000000 54.419044
v -23.823109 0.000000 46.298298
v -29.922991 -0.000000 42.928883
v -37.945530 0.000000 54.419044
v -45.031822 0.000000 49.220718
v -29.922991 -0.000000 42.928883
v -35.515938 -0.000000 38.825645
v -45.031822 0.000000 49.220718
v -51.352093 0.000000 43.188160
v -35.515938 -0.000000 38.825645
v -40.506737 0.000000 34.061985
v -51.352093 0.000000 43.188171
v -56.801945 -0.000000 36.421108
v -40.506737 -0.000000 34.061989
v -44.808517 0.000000 28.720886
v -56.801945 -0.000000 36.421108
v -61.286324 -0.000000 29.029467
v -44.808517 0.000000 28.720886
v -48.344440 0.000000 22.893330
v -61.286324 -0.000000 29.029467
v -64.721687 0.000000 21.136328
v -48.344440 0.000000 22.893330
v -51.050213 0.000000 16.677105
v -64.721672 0.000000 21.136337
v -67.042587 -0.000000 12.880061
v -51.050205 -0.000000 16.677111
v -52.877712 0.000000 10.175128
v -67.042587 0.000000 12.880070
v -68.211624 -0.000000 4.413823
v -52.877712 -0.000000 10.175135
v -53.799500 0.000000 3.491356
v -68.211624 -0.000000 4.413823
v -68.232323 0.000000 -4.118519
v -53.799500 0.000000 3.491356
v -53.816029 0.000000 -3.257699
v -68.232323 0.000000 -4.118519
v -67.104454 0.000000 -12.589523
v -53.816029 0.000000 -3.257699
v -52.926857 0.000000 -9.946250
v -67.104454 0.000000 -12.589516
v -64.823204 -0.000000 -20.856081
v -52.926868 0.000000 -9.946244
v -51.130608 0.000000 -16.456551
v -64.823204 -0.000000 -20.856081
v -61.425148 0.000000 -28.764391
v -51.130608 0.000000 -16.456551
v -48.454243 0.000000 -22.684574
v -61.425148 0.000000 -28.764391
v -56.975204 0.000000 -36.175480
v -48.454243 0.000000 -22.684574
v -44.945511 0.000000 -28.527189
v -56.975204 0.000000 -36.175480
v -51.556606 0.000000 -42.965790
v -44.945511 0.000000 -28.527189
v -40.668404 0.000000 -33.886421
v -51.556606 0.000000 -42.965790
v -45.264248 0.000000 -49.025024
v -40.668404 0.000000 -33.886421
v -35.699524 0.000000 -38.671051
v -45.264259 0.000000 -49.025017
v -38.202255 0.000000 -54.253258
v -35.699539 0.000000 -38.671043
v -30.125511 0.000000 -42.797897
v -38.202255 0.000000 -54.253258
v -30.485348 0.000000 -58.559437
v -30.125511 0.000000 -42.797897
v -24.041363 0.000000 -46.193333
v -30.485348 0.000000 -58.559437
v -22.241953 0.000000 -61.863495
v -24.041363 0.000000 -46.193333
v -17.549204 0.000000 -48.795712
v -22.241953 0.000000 -61.863495
v -13.616399 0.000000 -64.102623
v -17.549204 0.000000 -48.795712
v -10.756512 0.000000 -50.558834
v -13.616399 0.000000 -64.102623
v -4.768453 0.000000 -65.240601
v -10.756512 0.000000 -50.558834
v -3.771916 0.000000 -51.456200
v -4.768453 0.000000 -65.240601
v 4.151094 0.000000 -65.280197
v -3.771916 0.000000 -51.456200
v 3.283432 0.000000 -51.487820
v 4.151094 0.000000 -65.280197
v 13.008984 0.000000 -64.220963
v 3.283432 0.000000 -51.487820
v 10.278006 0.000000 -50.652843
v 13.009002 0.000000 -64.220963
v 21.656094 0.000000 -62.057701
v 10.278019 0.000000 -50.652843
v 17.088137 0.000000 -48.949509
v 21.656094 0.000000 -62.057701
v 29.931168 0.000000 -58.825005
v 17.088137 0.000000 -48.949509
v 23.604933 0.000000 -46.403397
v 29.931168 0.000000 -58.825005
v 37.688751 0.000000 -54.584698
v 23.604933 0.000000 -46.403397
v 29.720577 0.000000 -43.059967
v 37.688751 0.000000 -54.584698
v 44.799305 0.000000 -49.416309
v 29.720577 0.000000 -43.059967
v 35.332462 0.000000 -38.980343
v 44.799358 0.000000 -49.416267
v 51.147469 0.000000 -43.410446
v 35.332500 -0.000000 -38.980312
v 40.345188 0.000000 -34.237637
v 51.147484 0.000000 -43.410435
v 56.628590 -0.000000 -36.666637
v 40.345196 -0.000000 -34.237633
v 44.671658 0.000000 -28.914639
v 56.628601 -0.000000 -36.666615
v 61.147388 -0.000000 -29.294455
v 44.671673 0.000000 -28.914621
v 48.234783 0.000000 -23.102119
v 61.147404 -0.000000 -29.294424
v 64.620033 0.000000 -21.416500
v 48.234791 0.000000 -23.102098
v 50.969971 0.000000 -16.897676
v 64.620049 0.000000 -21.416470
v 66.980583 0.000000 -13.170571
v 50.969978 0.000000 -16.897652
v 52.828720 0.000000 -10.404035
v 66.980591 -0.000000 -13.170541
v 68.190796 -0.000000 -4.709111
v 52.828724 0.000000 -10.404010
v 53.783112 0.000000 -3.725021
v 68.190796 -0.000000 -4.709080
v 68.252876 -0.000000 3.823214
v 53.783112 0.000000 -3.724996
v 53.832699 0.000000 3.024052
v 68.252876 -0.000000 3.823214
v 67.166161 -0.000000 12.298935
v 53.832699 0.000000 3.024052
v 52.976154 0.000000 9.717383
v 67.166161 0.000000 12.298967
v 64.924591 -0.000000 20.575750
v 52.976147 0.000000 9.717407
v 51.211166 0.000000 16.236019
v 64.924576 -0.000000 20.575779
v 61.563858 -0.000000 28.499210
v 51.211155 0.000000 16.236042
v 48.564198 0.000000 22.475855
v 61.563839 0.000000 28.499241
v 57.148354 -0.000000 35.929745
v 48.564182 0.000000 22.475878
v 45.082638 0.000000 28.333553
v 57.148335 -0.000000 35.929771
v 51.761066 -0.000000 42.743263
v 45.082626 0.000000 28.333576
v 40.830212 0.000000 33.710911
v 51.761040 -0.000000 42.743290
v 45.496605 -0.000000 48.829208
v 40.830196 0.000000 33.710926
v 35.883224 0.000000 38.516548
v 45.496574 0.000000 48.829224
v 38.458904 -0.000000 54.087349
v 35.883205 -0.000000 38.516560
v 30.328117 0.000000 42.667027
v 38.458904 -0.000000 54.087349
v 30.762375 -0.000000 58.426437
v 30.328117 0.000000 42.667027
v 24.259705 0.000000 46.088478
v 30.762350 -0.000000 58.426449
v 22.534901 -0.000000 61.766171
v 24.259684 0.000000 46.088490
v 17.779877 0.000000 48.719002
v 22.534868 -0.000000 61.766178
v 13.920141 0.000000 64.043228
v 17.779852 0.000000 48.719009
v 10.995870 -0.000000 50.512020
v 13.920110 -0.000000 64.043228
v 5.077206 -0.000000 65.220596
v 10.995844 0.000000 50.512024
v 4.016244 0.000000 51.440590
v 5.077173 -0.000000 65.220596
v -3.842286 -0.000000 65.299782
v 4.016220 0.000000 51.440590
v -3.039107 0.000000 51.503838
v -3.842286 -0.000000 65.299782
v -12.705195 0.000000 64.279930
v -3.039107 0.000000 51.503838
v -10.038766 -0.000000 50.700077
v -12.705195 0.000000 64.279930
v -21.362961 -0.000000 62.154633
v -10.038766 -0.000000 50.700077
v -16.857580 0.000000 49.026642
v -21.362961 -0.000000 62.154633
v -29.653906 -0.000000 58.957642
v -16.857580 0.000000 49.026642
v -23.386759 0.000000 46.508644
v -29.653906 -0.000000 58.957642
v -37.431786 0.000000 54.750298
v -23.386759 0.000000 46.508644
v -29.518169 0.000000 43.191223
v -37.431786 0.000000 54.750298
v -44.566647 -0.000000 49.611824
v -29.518169 0.000000 43.191223
v -35.149036 0.000000 39.135174
v -44.566689 -0.000000 49.611790
v -50.942684 0.000000 43.632683
v -35.149071 0.000000 39.135147
v -40.183712 0.000000 34.413422
v -50.942684 0.000000 43.632683
v -56.455025 0.000000 36.912189
v -40.183712 0.000000 34.413422
v -44.534866 0.000000 29.108553
v -56.455025 0.000000 36.912189
v -61.008244 0.000000 29.559507
v -44.534866 0.000000 29.108553
v -48.125210 -0.000000 23.311083
v -61.008274 -0.000000 29.559458
v -64.518219 0.000000 21.696720
v -48.125229 0.000000 23.311043
v -50.889843 0.000000 17.118370
v -64.518219 0.000000 21.696720
v -66.918419 -0.000000 13.461138
v -50.889843 0.000000 17.118370
v -52.779858 0.000000 10.633036
v -66.918427 -0.000000 13.461092
v -68.169800 -0.000000 5.004429
v -52.779865 0.000000 10.632998
v -53.766872 0.000000 3.958727
v -68.169800 -0.000000 5.004429
v -68.273293 -0.000000 -3.527805
v -53.766872 0.000000 3.958727
v -53.849514 0.000000 -2.790338
v -68.273293 -0.000000 -3.527853
v -67.227737 -0.000000 -12.008289
v -53.849514 0.000000 -2.790375
v -53.025593 0.000000 -9.488515
v -67.227737 -0.000000 -12.008289
v -65.025810 -0.000000 -20.295435
v -53.025593 0.000000 -9.488515
v -51.291832 0.000000 -16.015579
v -65.025787 0.000000 -20.295490
v -61.702385 0.000000 -28.234043
v -51.291813 0.000000 -16.015619
v -48.674255 0.000000 -22.267256
v -61.702385 0.000000 -28.234043
v -57.321373 0.000000 -35.683949
v -48.674255 0.000000 -22.267256
v -45.219887 0.000000 -28.140009
v -57.321373 0.000000 -35.683949
v -51.965374 0.000000 -42.520691
v -45.219887 0.000000 -28.140009
v -40.992104 0.000000 -33.535519
v -51.965340 0.000000 -42.520721
v -45.728878 0.000000 -48.633270
v -40.992081 0.000000 -33.535545
v -36.067032 0.000000 -38.362137
v -45.728878 0.000000 -48.633270
v -38.715519 0.000000 -53.921299
v -36.067032 0.000000 -38.362137
v -30.530834 0.000000 -42.536255
v -38.715519 0.000000 -53.921299
v -31.039299 0.000000 -58.293339
v -30.530834 0.000000 -42.536255
v -24.478083 0.000000 -45.983768
v -31.039299 0.000000 -58.293339
v -22.827738 0.000000 -61.668724
v -24.478083 0.000000 -45.983768
v -18.010555 0.000000 -48.642437
v -22.827690 0.000000 -61.668736
v -14.223773 0.000000 -63.983707
v -18.010517 0.000000 -48.642448
v -11.235197 0.000000 -50.465370
v -14.223773 0.000000 -63.983707
v -5.385869 0.000000 -65.200462
v -11.235197 0.000000 -50.465370
v -4.260520 0.000000 -51.425125
v -5.385818 0.000000 -65.200455
v 3.533591 0.000000 -65.319237
v -4.260481 0.000000 -51.425121
v 2.794888 0.000000 -51.519993
v 3.533591 0.000000 -65.319237
v 12.401394 0.000000 -64.338753
v 2.794888 0.000000 -51.519993
v 9.799564 0.000000 -50.747433
v 12.401394 0.000000 -64.338753
v 21.069872 0.000000 -62.251404
v 9.799564 0.000000 -50.747433
v 16.627138 0.000000 -49.103889
v 21.069967 0.000000 -62.251373
v 29.376675 0.000000 -59.090092
v 16.627213 0.000000 -49.103863
v 23.168730 0.000000 -46.613987
v 29.376675 0.000000 -59.090092
v 37.174843 0.000000 -54.915714
v 23.168730 0.000000 -46.613987
v 29.315920 0.000000 -43.322540
v 37.174843 0.000000 -54.915714
v 44.333969 0.000000 -49.807175
v 29.315920 0.000000 -43.322540
v 34.965775 0.000000 -39.290062
v 44.333969 0.000000 -49.807175
v 50.737831 0.000000 -43.854790
v 34.965775 0.000000 -39.290062
v 40.022373 0.000000 -34.589272
v 50.737869 0.000000 -43.854759
v 56.281506 0.000000 -37.157455
v 40.022400 -0.000000 -34.589245
v 44.398315 0.000000 -29.302382
v 56.281506 0.000000 -37.157455
v 60.869057 -0.000000 -29.824348
v 44.398315 0.000000 -29.302382
v 48.015823 0.000000 -23.519993
v 60.869057 -0.000000 -29.824348
v 64.416252 0.000000 -21.976881
v 48.015823 0.000000 -23.519993
v 50.809860 0.000000 -17.339104
v 64.416298 -0.000000 -21.976763
v 66.856133 -0.000000 -13.751521
v 50.809887 0.000000 -17.339012
v 52.731159 0.000000 -10.861945
v 66.856133 -0.000000 -13.751521
v 68.148674 0.000000 -5.299743
v 52.731159 0.000000 -10.861945
v 53.750771 0.000000 -4.192449
v 68.148674 0.000000 -5.299681
v 68.293549 -0.000000 3.232492
v 53.750771 0.000000 -4.192399
v 53.866478 0.000000 2.556713
v 68.293549 -0.000000 3.232492
v 67.289154 -0.000000 11.717679
v 53.866478 0.000000 2.556713
v 53.075180 0.000000 9.259726
v 67.289139 -0.000000 11.717772
v 65.126907 -0.000000 20.014994
v 53.075169 0.000000 9.259797
v 51.372665 0.000000 15.795120
v 65.126907 -0.000000 20.014994
v 61.840828 -0.000000 27.968740
v 51.372665 0.000000 15.795120
v 48.784473 0.000000 22.058659
v 61.840828 -0.000000 27.968740
v 57.494274 -0.000000 35.438076
v 48.784473 0.000000 22.058659
v 45.357258 0.000000 27.946541
v 57.494251 -0.000000 35.438091
v 52.169582 -0.000000 42.298000
v 45.357235 0.000000 27.946558
v 41.154118 0.000000 33.360210
v 52.169582 -0.000000 42.298000
v 45.961002 -0.000000 48.437256
v 41.154118 0.000000 33.360210
v 36.250908 0.000000 38.207855
v 45.961002 -0.000000 48.437256
v 38.971992 -0.000000 53.755161
v 36.250908 0.000000 38.207855
v 30.733599 0.000000 42.405628
v 38.971992 -0.000000 53.755161
v 31.316256 0.000000 58.160053
v 30.733599 0.000000 42.405628
v 24.696608 -0.000000 45.879154
v 31.316164 0.000000 58.160103
v 23.120512 0.000000 61.571152
v 24.696537 -0.000000 45.879189
v 18.241266 0.000000 48.566013
v 23.120512 0.000000 61.571152
v 14.527454 -0.000000 63.924026
v 18.241266 0.000000 48.566013
v 11.474614 0.000000 50.418835
v 14.527390 -0.000000 63.924042
v 5.694598 -0.000000 65.180168
v 11.474566 0.000000 50.418850
v 4.504870 0.000000 51.409790
v 5.694598 -0.000000 65.180168
v -3.224845 -0.000000 65.338554
v 4.504870 0.000000 51.409790
v -2.550644 0.000000 51.536289
v -3.224845 -0.000000 65.338554
v -12.097494 0.000000 64.397446
v -2.550644 0.000000 51.536289
v -9.560337 -0.000000 50.794945
v -12.097494 0.000000 64.397446
v -20.776674 0.000000 62.348057
v -9.560337 -0.000000 50.794945
v -16.396690 -0.000000 49.181290
v -20.776773 0.000000 62.348015
v -29.099277 0.000000 59.222462
v -16.396767 -0.000000 49.181263
v -22.950680 -0.000000 46.719490
vn -0.0000 -1.0000 -0.0000
vt 0.000000 0.000000
vt 1.000000 0.000000
vt 1.000000 1.000000
vt 0.000000 1.000000
s 0
usemtl 
f 49/1/1 50/2/1 52/3/1 51/4/1
f 53/1/1 54/2/1 56/3/1 55/4/1
f 57/1/1 58/2/1 60/3/1 59/4/1
f 61/1/1 62/2/1 64/3/1 63/4/1
f 65/1/1 66/2/1 68/3/1 67/4/1
f 69/1/1 70/2/1 72/3/1 71/4/1
f 73/1/1 74/2/1 76/3/1 75/4/1
f 77/1/1 78/2/1 80/3/1 79/4/1
f 81/1/1 82/2/1 84/3/1 83/4/1
f 85/1/1 86/2/1 88/3/1 87/4/1
f 89/1/1 90/2/1 92/3/1 91/4/1
f 93/1/1 94/2/1 96/3/1 95/4/1
f 97/1/1 98/2/1 100/3/1 99/4/1
f 101/1/1 102/2/1 104/3/1 103/4/1
f 105/1/1 106/2/1 108/3/1 107/4/1
f 109/1/1 110/2/1 112/3/1 111/4/1
f 113/1/1 114/2/1 116/3/1 115/4/1
f 117/1/1 118/2/1 120/3/1 119/4/1
f 121/1/1 122/2/1 124/3/1 123/4/1
f 125/1/1 126/2/1 128/3/1 127/4/1
f 129/1/1 130/2/1 132/3/1 131/4/1
f 133/1/1 134/2/1 136/3/1 135/4/1
f 137/1/1 138/2/1 140/3/1 139/4/1
f 141/1/1 142/2/1 144/3/1 143/4/1
f 145/1/1 146/2/1 148/3/1 147/4/1
f 149/1/1 150/2/1 152/3/1 151/4/1
f 153/1/1 154/2/1 156/3/1 155/4/1
f 157/1/1 158/2/1 160/3/1 159/4/1
f 161/1/1 162/2/1 164/3/1 163/4/1
f 165/1/1 166/2/1 168/3/1 167/4/1
f 169/1/1 170/2/1 172/3/1 171/4/1
f 173/1/1 174/2/1 176/3/1 175/4/1
f 177/1/1 178/2/1 180/3/1 179/4/1
f 181/1/1 182/2/1 184/3/1 183/4/1
f 185/1/1 186/2/1 188/3/1 187/4/1
f 189/1/1 190/2/1 192/3/1 191/4/1
f 193/1/1 194/2/1 196/3/1 195/4/1
f 197/1/1 198/2/1 200/3/1 199/4/1
f 201/1/1 202/2/1 204/3/1 203/4/1
f 205/1/1 206/2/1 208/3/1 207/4/1
f 209/1/1 210/2/1 212/3/1 211/4/1
f 213/1/1 214/2/1 216/3/1 215/4/1
f 217/1/1 218/2/1 220/3/1 219/4/1
f 221/1/1 222/2/1 224/3/1 223/4/1
f 225/1/1 226/2/1 228/3/1 227/4/1
f 229/1/1 230/2/1 232/3/1 231/4/1
f 233/1/1 234/2/1 236/3/1 235/4/1
f 237/1/1 238/2/1 240/3/1 239/4/1
f 241/1/1 242/2/1 244/3/1 243/4/1
f 245/1/1 246/2/1 248/3/1 247/4/1
f 249/1/1 250/2/1 252/3/1 251/4/1
f 253/1/1 254/2/1 256/3/1 255/4/1
f 257/1/1 258/2/1 260/3/1 259/4/1
f 261/1/1 262/2/1 264/3/1 263/4/1
f 265/1/1 266/2/1 268/3/1 267/4/1
f 269/1/1 270/2/1 272/3/1 271/4/1
f 273/1/1 274/2/1 276/3/1 275/4/1
f 277/1/1 278/2/1 280/3/1 279/4/1
f 281/1/1 282/2/1 284/3/1 283/4/1
f 285/1/1 286/2/1 288/3/1 287/4/1
f 289/1/1 290/2/1 292/3/1 291/4/1
f 293/1/1 294/2/1 296/3/1 295/4/1
f 297/1/1 298/2/1 300/3/1 299/4/1
f 301/1/1 302/2/1 304/3/1 303/4/1
f 305/1/1 306/2/1 308/3/1 307/4/1
f 309/1/1 310/2/1 312/3/1 311/4/1
f 313/1/1 314/2/1 316/3/1 315/4/1
f 317/1/1 318/2/1 320/3/1 319/4/1
f 321/1/1 322/2/1 324/3/1 323/4/1
f 325/1/1 326/2/1 328/3/1 327/4/1
f 329/1/1 330/2/1 332/3/1 331/4/1
f 333/1/1 334/2/1 336/3/1 335/4/1
f 337/1/1 338/2/1 340/3/1 339/4/1
f 341/1/1 342/2/1 344/3/1 343/4/1
f 345/1/1 346/2/1 348/3/1 347/4/1
f 349/1/1 350/2/1 352/3/1 351/4/1
f 353/1/1 354/2/1 356/3/1 355/4/1
f 357/1/1 358/2/1 360/3/1 359/4/1
f 361/1/1 362/2/1 364/3/1 363/4/1
f 365/1/1 366/2/1 368/3/1 367/4/1
f 369/1/1 370/2/1 372/3/1 371/4/1
f 373/1/1 374/2/1 376/3/1 375/4/1
f 377/1/1 378/2/1 380/3/1 379/4/1
f 381/1/1 382/2/1 384/3/1 383/4/1
f 385/1/1 386/2/1 388/3/1 387/4/1
f 389/1/1 390/2/1 392/3/1 391/4/1
f 393/1/1 394/2/1 396/3/1 395/4/1
f 397/1/1 398/2/1 400/3/1 399/4/1
f 401/1/1 402/2/1 404/3/1 403/4/1
f 405/1/1 406/2/1 408/3/1 407/4/1
f 409/1/1 410/2/1 412/3/1 411/4/1
f 413/1/1 414/2/1 416/3/1 415/4/1
f 417/1/1 418/2/1 420/3/1 419/4/1
f 421/1/1 422/2/1 424/3/1 423/4/1
f 425/1/1 426/2/1 428/3/1 427/4/1
f 429/1/1 430/2/1 432/3/1 431/4/1
f 433/1/1 434/2/1 436/3/1 435/4/1
f 437/1/1 438/2/1 440/3/1 439/4/1
f 441/1/1 442/2/1 444/3/1 443/4/1
f 445/1/1 446/2/1 448/3/1 447/4/1
